<svg width="78.029449" height="78.029297" viewBox="0 0 78.0294 78.0293" fill="none" xmlns="http://www.w3.org/2000/svg" xmlns:xlink="http://www.w3.org/1999/xlink">
	<desc>
			Created with Pixso.
	</desc>
	<defs/>
	<path id="Polygon 2" d="M34.7721 1.75684L1.75735 34.7725C-0.585785 37.1152 -0.585785 40.9141 1.75735 43.2568L34.7721 76.2725C37.1152 78.6152 40.9142 78.6152 43.2574 76.2725L76.2721 43.2568C78.6152 40.9141 78.6152 37.1152 76.2721 34.7725L43.2574 1.75684C40.9142 -0.585938 37.1152 -0.585938 34.7721 1.75684Z" fill="#65DAFF" fill-opacity="0" fill-rule="evenodd"/>
	<path id="Polygon 2" d="M1.75735 34.7725C-0.585785 37.1152 -0.585785 40.9141 1.75735 43.2568L34.7721 76.2725C37.1152 78.6152 40.9142 78.6152 43.2574 76.2725L76.2721 43.2568C78.6152 40.9141 78.6152 37.1152 76.2721 34.7725L43.2574 1.75684C40.9142 -0.585938 37.1152 -0.585938 34.7721 1.75684L1.75735 34.7725ZM3.17157 36.1865C1.60947 37.748 1.60947 40.2812 3.17157 41.8428L36.1863 74.8574C37.7484 76.4199 40.281 76.4199 41.8431 74.8574L74.8578 41.8428C76.42 40.2812 76.42 37.748 74.8578 36.1865L41.8431 3.17188C40.281 1.60938 37.7484 1.60938 36.1863 3.17188L3.17157 36.1865Z" fill="#26C1F2" fill-opacity="1.000000" fill-rule="evenodd"/>
</svg>
